<?xml version="1.0" standalone="no"?>
<!DOCTYPE svg PUBLIC "-//W3C//DTD SVG 20010904//EN"
 "http://www.w3.org/TR/2001/REC-SVG-20010904/DTD/svg10.dtd">
<svg version="1.0" xmlns="http://www.w3.org/2000/svg"
 width="306.000000pt" height="306.000000pt" viewBox="0 0 306.000000 306.000000"
 preserveAspectRatio="xMidYMid meet">

<g transform="translate(0.000000,306.000000) scale(0.100000,-0.100000)"
fill="#000000" stroke="none">
<path d="M389 2886 c-119 -33 -226 -126 -282 -243 l-32 -68 0 -1055 0 -1055
37 -76 c61 -125 177 -215 309 -239 37 -7 428 -10 1145 -8 l1089 3 55 22 c111
46 207 142 253 253 l22 55 3 1005 c2 603 -1 1030 -7 1066 -25 162 -150 296
-316 340 -71 19 -2207 19 -2276 0z m1731 -448 c-1 -212 -31 -343 -112 -478
-75 -125 -171 -213 -311 -284 -76 -39 -82 -45 -98 -88 -58 -164 -103 -425 -97
-573 l3 -90 32 61 c41 79 133 193 218 269 37 33 86 77 108 98 l42 38 -45 -22
c-73 -35 -152 -93 -213 -155 -31 -32 -59 -56 -61 -53 -3 3 1 34 9 71 17 83 62
171 115 226 44 46 140 112 164 112 8 0 17 4 20 8 6 10 89 29 160 37 72 8 207
-5 213 -21 7 -19 -71 -171 -128 -246 -99 -133 -228 -206 -412 -233 -44 -7 -84
-55 -142 -171 -59 -118 -69 -164 -67 -300 l1 -122 -31 -6 c-72 -14 -68 -22
-68 142 0 285 -36 468 -127 645 -45 86 -80 127 -112 127 -9 0 -36 7 -61 16
-102 35 -156 69 -232 145 -62 62 -85 94 -121 170 -42 87 -87 233 -87 279 0 18
7 20 78 20 203 -1 414 -105 518 -257 65 -95 86 -161 92 -283 l4 -105 -48 65
c-26 36 -73 91 -103 124 -56 58 -172 156 -186 156 -4 0 12 -22 36 -48 142
-155 235 -282 299 -406 33 -64 62 -111 64 -104 2 7 9 45 16 83 11 62 22 110
50 210 31 113 80 228 191 450 105 209 105 226 -3 82 -59 -80 -128 -211 -169
-324 -24 -63 -33 -70 -42 -31 -3 13 -12 50 -21 83 -29 112 -18 259 27 367 77
183 282 345 531 418 112 33 106 39 106 -102z"/>
</g>
</svg>
