<?xml version="1.0" standalone="no"?>
<!DOCTYPE svg PUBLIC "-//W3C//DTD SVG 20010904//EN"
 "http://www.w3.org/TR/2001/REC-SVG-20010904/DTD/svg10.dtd">
<svg version="1.0" xmlns="http://www.w3.org/2000/svg"
 width="500.000000pt" height="500.000000pt" viewBox="0 0 500.000000 500.000000"
 preserveAspectRatio="xMidYMid meet">

<g transform="translate(0.000000,500.000000) scale(0.100000,-0.100000)"
fill="#000000" stroke="none">
<path d="M536 4979 c-19 -15 -107 -180 -282 -531 l-254 -509 0 -438 c0 -251 4
-461 10 -492 24 -126 113 -246 230 -308 l60 -32 0 -1304 0 -1304 24 -28 24
-28 2152 0 2152 0 24 28 24 28 0 1304 0 1304 60 32 c115 61 206 184 230 309 6
30 10 238 10 491 l0 438 -254 508 c-139 279 -264 517 -276 528 -22 20 -38 20
-1965 23 l-1942 2 -27 -21z m4009 -559 c107 -214 195 -392 195 -395 0 -3
-1008 -5 -2240 -5 -1232 0 -2240 2 -2240 5 0 3 88 181 195 395 l195 390 1850
0 1850 0 195 -390z m-3857 -975 c3 -439 0 -457 -72 -529 -122 -123 -315 -89
-399 68 -21 40 -22 53 -25 430 -2 214 -1 395 2 403 5 11 51 13 248 11 l243 -3
3 -380z m687 -10 c0 -432 -1 -438 -63 -507 -55 -60 -104 -82 -187 -83 -59 0
-78 4 -117 28 -26 15 -59 42 -72 60 -54 71 -56 88 -56 508 l0 389 248 -2 247
-3 0 -390z m685 3 c-1 -423 -2 -435 -54 -503 -15 -19 -48 -47 -74 -62 -39 -24
-58 -28 -117 -28 -82 1 -134 23 -185 81 -60 69 -60 66 -60 504 l0 400 245 0
245 0 0 -392z m688 7 c3 -440 1 -455 -73 -528 -101 -102 -249 -102 -350 0 -73
72 -75 88 -75 523 0 207 3 380 7 384 4 3 115 5 247 4 l241 -3 3 -380z m682
-15 c0 -438 0 -435 -60 -504 -51 -58 -103 -80 -185 -81 -59 0 -78 4 -117 28
-26 15 -59 43 -74 62 -52 68 -53 80 -54 503 l0 392 245 0 245 0 0 -400z m690
12 c0 -335 -2 -395 -17 -437 -32 -94 -134 -165 -237 -165 -84 0 -185 71 -223
155 -16 36 -18 80 -21 424 -2 211 -1 390 2 397 4 11 53 14 251 14 l245 0 0
-388z m685 -17 c0 -391 0 -401 -22 -441 -84 -157 -277 -191 -398 -69 -73 73
-75 85 -75 520 0 210 3 385 7 389 4 3 115 5 247 4 l241 -3 0 -400z m-3873
-726 c160 -81 359 -54 487 66 l51 47 50 -45 c100 -90 235 -131 361 -109 83 14
175 59 233 112 l43 40 44 -41 c95 -88 242 -133 365 -112 83 14 176 59 233 112
l44 40 47 -42 c167 -150 419 -152 584 -5 l57 50 50 -47 c161 -150 418 -149
589 3 l45 40 45 -40 c54 -48 122 -84 193 -102 l52 -13 3 -1232 2 -1231 -1127
2 -1128 3 -2 895 c-2 698 -6 900 -15 919 -27 51 -26 51 -766 51 -477 0 -699
-3 -721 -11 -17 -6 -37 -21 -44 -33 -9 -16 -13 -235 -17 -921 l-5 -900 -98 -3
-97 -3 2 1232 3 1232 52 13 c72 18 139 54 193 102 l45 40 45 -40 c25 -22 71
-53 102 -69z m1128 -1669 l0 -840 -590 0 -590 0 0 833 c0 459 3 837 7 840 3 4
269 7 590 7 l583 0 0 -840z"/>
<path d="M2515 2051 c-11 -5 -29 -19 -40 -31 -20 -22 -20 -36 -20 -696 l0
-674 28 -27 27 -28 858 -3 c631 -2 864 1 885 9 60 25 57 -7 57 717 0 730 2
709 -61 731 -38 13 -1702 15 -1734 2z m1603 -729 l2 -542 -737 2 -738 3 -3
530 c-1 292 0 536 3 543 3 10 156 12 737 10 l733 -3 3 -543z"/>
</g>
</svg>
