<?xml version="1.0" standalone="no"?>
<!DOCTYPE svg PUBLIC "-//W3C//DTD SVG 20010904//EN"
 "http://www.w3.org/TR/2001/REC-SVG-20010904/DTD/svg10.dtd">
<svg version="1.0" xmlns="http://www.w3.org/2000/svg"
 width="500.000000pt" height="500.000000pt" viewBox="0 0 500.000000 500.000000"
 preserveAspectRatio="xMidYMid meet">

<g transform="translate(0.000000,500.000000) scale(0.100000,-0.100000)"
fill="#000000" stroke="none">
<path d="M2229 4845 c-259 -63 -444 -284 -474 -566 -6 -57 -4 -67 15 -92 17
-21 30 -27 61 -27 l39 0 0 -78 c0 -224 133 -416 337 -487 35 -13 64 -27 64
-31 0 -5 -4 -36 -10 -69 -6 -33 -13 -101 -17 -152 l-7 -91 -89 -77 -89 -76
-177 -15 c-97 -7 -195 -16 -218 -20 -33 -5 -87 10 -320 87 -153 50 -297 94
-320 97 -35 4 -46 0 -75 -26 l-34 -30 -3 -237 c-3 -234 -3 -238 19 -261 18
-19 33 -24 75 -24 29 0 55 -3 57 -7 2 -5 -27 -114 -64 -243 -76 -257 -77 -276
-20 -300 28 -11 73 -2 85 18 3 5 37 119 76 253 39 134 73 252 76 262 5 15 19
17 111 17 96 0 105 -2 98 -17 -17 -46 -65 -230 -84 -324 -91 -460 -52 -851
134 -1333 29 -77 57 -149 61 -158 5 -16 -1 -18 -59 -18 l-64 0 -200 222 c-322
359 -343 382 -343 394 0 6 25 96 55 200 60 205 65 242 37 267 -24 22 -77 22
-100 -1 -10 -10 -33 -69 -51 -132 -18 -63 -43 -152 -57 -196 l-24 -81 -71 -7
c-266 -27 -491 -183 -604 -421 -18 -38 -39 -94 -46 -123 -12 -48 -11 -54 8
-80 15 -20 36 -31 82 -41 l61 -14 0 -61 c1 -258 189 -487 445 -541 127 -27
242 -12 363 47 90 43 208 160 248 244 l28 61 60 -13 c90 -19 125 4 140 89 l7
37 766 -2 766 -3 13 -55 c8 -30 31 -89 51 -130 45 -94 167 -220 260 -268 134
-70 301 -90 447 -52 114 29 189 73 281 165 87 87 135 167 165 277 l17 63 54 5
c108 11 129 45 108 178 -8 50 -12 121 -9 167 3 44 5 152 5 240 -1 173 -20 277
-71 394 l-24 54 23 26 c51 57 52 59 57 200 l5 136 220 5 c206 5 223 7 268 29
64 31 122 105 137 173 8 37 10 197 8 523 -3 463 -3 471 -25 511 -29 55 -78
103 -128 125 -37 17 -77 19 -538 19 -475 0 -500 -1 -536 -20 -53 -26 -100 -76
-125 -130 -20 -44 -21 -62 -24 -562 l-3 -518 -156 0 -156 0 7 42 c12 72 7 327
-9 463 -50 424 -192 752 -414 958 l-74 67 37 48 c52 65 104 178 121 259 19 89
19 253 0 328 -29 113 -81 203 -170 292 -89 89 -172 138 -290 168 -72 18 -210
18 -286 0z m227 -136 c224 -41 395 -252 394 -488 -1 -127 -56 -272 -137 -361
-47 -51 -133 -112 -133 -93 0 4 -1 103 -2 218 -3 189 -5 213 -23 244 -40 68
-56 71 -369 71 l-279 0 6 41 c3 23 19 70 37 105 61 125 178 221 309 256 79 20
117 22 197 7z m-31 -774 l0 -220 -70 1 c-164 3 -302 127 -334 297 -9 51 -8 94
5 135 3 10 48 12 201 10 l198 -3 0 -220z m333 -330 c108 -81 217 -237 286
-408 64 -160 126 -458 126 -611 l0 -66 -332 2 -333 3 -26 95 c-14 52 -29 111
-33 131 l-6 37 107 68 c132 84 187 133 219 197 83 164 -12 344 -197 372 -33 5
-61 1 -108 -15 -35 -11 -65 -20 -66 -18 -6 6 24 161 32 168 4 3 42 14 83 24
41 10 98 28 125 41 28 13 53 24 57 24 3 1 33 -19 66 -44z m2039 -315 c17 -10
37 -28 42 -39 15 -28 25 -131 17 -175 l-7 -36 -539 0 -540 0 0 90 c0 62 5 100
15 120 31 60 27 59 525 60 433 0 457 -1 487 -20z m-2176 -46 c23 -22 29 -36
29 -71 0 -38 -6 -50 -42 -88 -24 -24 -124 -96 -222 -159 l-179 -116 -143 0
-144 0 0 65 c0 55 3 65 18 66 9 0 54 4 99 8 l82 8 168 145 c93 80 182 153 199
162 41 23 99 15 135 -20z m-1363 -219 c162 -53 173 -59 167 -79 -4 -11 -9 -47
-12 -79 l-5 -57 -177 2 -176 3 -3 124 c-3 132 0 156 21 149 6 -3 90 -31 185
-63z m512 -155 l0 -61 -102 3 c-102 3 -103 3 -112 31 -8 23 -6 31 12 49 20 21
38 24 185 37 14 1 17 -8 17 -59z m3084 14 c8 -20 8 -92 0 -121 l-6 -23 -539 0
-539 0 0 80 0 80 539 0 c482 0 539 -2 545 -16z m-2525 -269 c12 -44 24 -87 27
-97 4 -12 -13 -25 -70 -52 -135 -65 -228 -182 -277 -346 -19 -67 -22 -107 -28
-362 -3 -157 -8 -288 -11 -290 -3 -3 -26 -12 -51 -21 -96 -36 -164 -124 -190
-245 l-11 -52 -74 0 -73 0 -25 83 c-79 259 -100 397 -100 652 1 259 25 414
106 683 l31 102 336 0 c267 1 341 4 361 15 14 7 26 13 26 12 1 -1 11 -38 23
-82z m2529 -60 c2 -22 1 -92 -3 -155 -7 -112 -8 -115 -40 -147 l-33 -33 -506
0 -506 0 0 190 0 190 543 -2 542 -3 3 -40z m-1682 -237 c-10 -72 -47 -150 -84
-177 -66 -47 -105 -53 -347 -60 -217 -6 -232 -7 -267 -29 -22 -14 -46 -41 -60
-70 -22 -44 -23 -60 -26 -279 l-4 -233 -134 0 -134 0 0 224 c0 248 13 358 55
452 47 107 123 177 228 209 31 10 135 14 411 14 l369 1 -7 -52z m1044 -355 c0
-85 -3 -110 -17 -125 -15 -17 -41 -18 -404 -18 l-388 0 -20 -26 c-26 -34 -27
-68 -1 -94 19 -19 33 -20 379 -20 l358 0 31 -67 c17 -38 37 -92 46 -120 16
-56 41 -251 34 -259 -3 -2 -26 20 -52 50 -88 103 -226 190 -376 238 -64 20
-96 23 -220 23 -160 0 -233 -16 -355 -77 -221 -112 -375 -314 -425 -558 l-17
-85 -545 -3 -546 -2 -33 82 c-19 45 -35 85 -37 89 -2 4 180 9 405 11 381 3
410 4 440 22 56 34 58 44 61 364 l3 292 304 0 304 0 21 27 c23 30 21 65 -7 96
-15 15 -43 17 -320 17 l-303 0 0 43 c0 72 -5 70 217 72 112 2 222 8 253 15 75
17 150 53 185 90 l29 30 498 0 498 0 0 -107z m-431 -588 c143 -45 280 -155
359 -288 36 -59 76 -169 85 -229 l6 -38 -649 0 -649 0 5 33 c14 76 64 199 108
265 96 145 258 251 429 282 82 14 215 4 306 -25z m-2762 -345 c153 -171 278
-316 278 -323 0 -7 -4 -11 -10 -11 -27 4 -1121 257 -1125 261 -2 2 11 34 30
71 89 175 300 309 487 311 l62 1 278 -310z m1363 210 l0 -90 -260 0 c-294 0
-281 -5 -237 80 25 50 59 78 108 90 19 4 114 8 212 9 l177 1 0 -90z m-1701
-556 c207 -47 384 -87 393 -90 17 -5 16 -8 -3 -46 -32 -62 -107 -131 -184
-169 -66 -32 -75 -34 -175 -34 -94 0 -111 3 -163 27 -145 68 -231 185 -252
346 -4 28 -3 52 1 52 4 0 177 -38 383 -86z m3369 -51 c-57 -210 -290 -372
-500 -349 -190 22 -340 139 -407 319 -11 32 -21 60 -21 62 0 3 211 5 469 5
l469 0 -10 -37z"/>
</g>
</svg>
