<?xml version="1.0" standalone="no"?>
<!DOCTYPE svg PUBLIC "-//W3C//DTD SVG 20010904//EN"
 "http://www.w3.org/TR/2001/REC-SVG-20010904/DTD/svg10.dtd">
<svg version="1.0" xmlns="http://www.w3.org/2000/svg"
 width="500.000000pt" height="500.000000pt" viewBox="0 0 500.000000 500.000000"
 preserveAspectRatio="xMidYMid meet">

<g transform="translate(0.000000,500.000000) scale(0.100000,-0.100000)"
fill="#000000" stroke="none">
<path d="M2275 4985 c-369 -55 -709 -302 -883 -643 -205 -400 -166 -895 98
-1251 260 -351 658 -532 1083 -492 299 29 533 139 739 348 105 106 140 152
205 265 170 296 197 700 69 1027 -105 266 -329 508 -594 640 -205 103 -470
142 -717 106z m412 -305 c238 -57 463 -233 586 -461 121 -221 133 -531 33
-780 -79 -194 -285 -399 -484 -483 -243 -102 -559 -90 -781 31 -125 67 -260
191 -340 309 -141 210 -184 486 -116 749 61 237 265 472 506 585 169 78 398
97 596 50z"/>
<path d="M1331 2569 c-29 -5 -95 -23 -145 -40 -446 -148 -712 -638 -767 -1415
-15 -209 -7 -392 21 -499 79 -307 305 -521 627 -593 72 -16 183 -17 1433 -17
1261 0 1360 1 1428 18 328 79 542 282 625 588 20 77 22 105 21 324 0 249 -13
384 -55 590 -136 666 -467 1026 -965 1052 -135 7 -149 2 -359 -134 -168 -108
-180 -115 -309 -163 -159 -59 -241 -75 -396 -74 -150 0 -241 18 -402 80 -113
43 -128 51 -291 156 -195 126 -223 138 -327 137 -47 -1 -109 -5 -139 -10z
m304 -370 c224 -145 363 -206 590 -260 85 -20 126 -24 270 -23 150 0 184 3
290 28 211 49 333 104 568 253 l150 96 66 -7 c151 -16 298 -90 391 -197 193
-222 297 -561 322 -1056 10 -199 10 -231 -6 -309 -41 -210 -176 -353 -388
-412 -58 -16 -160 -17 -1393 -17 -1256 0 -1334 1 -1394 18 -155 44 -283 146
-342 271 -52 110 -62 204 -50 449 26 519 143 877 356 1090 92 92 261 164 390
166 34 1 61 -13 180 -90z"/>
</g>
</svg>
